<svg width="78" height="78" viewBox="0 0 78 78" fill="none" xmlns="http://www.w3.org/2000/svg">
<circle cx="39" cy="39" r="39" fill="#F2F2F2"/>
<path d="M35.7253 26.9225C36.956 26.3136 38.311 25.9979 39.6841 26.0001C44.7842 26.0001 48.9209 30.2915 48.9209 35.5859V36.5507C48.9193 37.7023 49.2479 38.8302 49.8679 39.8007L51.3841 42.1598C52.7676 44.3151 51.7112 47.2449 49.3041 47.9263C43.0144 49.7076 36.3538 49.7076 30.0641 47.9263C27.6571 47.2449 26.6006 44.3151 27.9841 42.1612L29.5003 39.8007C30.1203 38.8302 30.4489 37.7023 30.4473 36.5507V35.5859C30.4473 34.1162 30.7661 32.7232 31.3367 31.4779M33.5262 49.2633C34.4225 51.6553 36.8405 53.3686 39.6841 53.3686C40.0189 53.3686 40.3473 53.3457 40.6694 53.3001M45.842 49.2633C45.4713 50.2401 44.8582 51.1066 44.0603 51.7812" stroke="#2D2F33" stroke-width="1.75777" stroke-linecap="round"/>
<circle cx="47.8948" cy="25.3159" r="5.47368" fill="#FE4C4C"/>
</svg>
